<svg width="334" height="384" viewBox="0 0 334 384" fill="none" xmlns="http://www.w3.org/2000/svg">
<g filter="url(#filter0_d_95_1903)">
<path fill-rule="evenodd" clip-rule="evenodd" d="M20 4C11.1634 4 4 11.1634 4 20V259C13.8834 259 22.0924 266.169 23.7106 275.591C24.0729 275.226 24.5749 275 25.1296 275H31.1667C32.2712 275 33.1667 275.895 33.1667 277C33.1667 278.105 32.2712 279 31.1667 279H25.1296C24.7092 279 24.319 278.87 23.997 278.649C23.999 278.765 24 278.883 24 279C24 290.046 15.0457 299 4 299V364C4 372.837 11.1635 380 20 380H314C322.837 380 330 372.837 330 364V299C318.954 299 310 290.046 310 279C310 278.883 310.001 278.765 310.003 278.649C309.681 278.87 309.291 279 308.87 279H302.833C301.729 279 300.833 278.105 300.833 277C300.833 275.895 301.729 275 302.833 275H308.87C309.425 275 309.927 275.226 310.289 275.591C311.908 266.169 320.117 259 330 259V20C330 11.1634 322.837 4 314 4H20ZM37.2037 275C36.0991 275 35.2037 275.895 35.2037 277C35.2037 278.105 36.0991 279 37.2037 279H43.2407C44.3453 279 45.2407 278.105 45.2407 277C45.2407 275.895 44.3453 275 43.2407 275H37.2037ZM49.2778 275C48.1732 275 47.2778 275.895 47.2778 277C47.2778 278.105 48.1732 279 49.2778 279H55.3148C56.4194 279 57.3148 278.105 57.3148 277C57.3148 275.895 56.4194 275 55.3148 275H49.2778ZM61.3519 275C60.2473 275 59.3519 275.895 59.3519 277C59.3519 278.105 60.2473 279 61.3519 279H67.3889C68.4935 279 69.3889 278.105 69.3889 277C69.3889 275.895 68.4935 275 67.3889 275H61.3519ZM73.4259 275C72.3214 275 71.4259 275.895 71.4259 277C71.4259 278.105 72.3214 279 73.4259 279H79.463C80.5675 279 81.463 278.105 81.463 277C81.463 275.895 80.5675 275 79.463 275H73.4259ZM85.5 275C84.3954 275 83.5 275.895 83.5 277C83.5 278.105 84.3954 279 85.5 279H91.537C92.6416 279 93.537 278.105 93.537 277C93.537 275.895 92.6416 275 91.537 275H85.5ZM97.5741 275C96.4695 275 95.5741 275.895 95.5741 277C95.5741 278.105 96.4695 279 97.5741 279H103.611C104.716 279 105.611 278.105 105.611 277C105.611 275.895 104.716 275 103.611 275H97.5741ZM109.648 275C108.544 275 107.648 275.895 107.648 277C107.648 278.105 108.544 279 109.648 279H115.685C116.79 279 117.685 278.105 117.685 277C117.685 275.895 116.79 275 115.685 275H109.648ZM121.722 275C120.618 275 119.722 275.895 119.722 277C119.722 278.105 120.618 279 121.722 279H127.759C128.864 279 129.759 278.105 129.759 277C129.759 275.895 128.864 275 127.759 275H121.722ZM133.796 275C132.692 275 131.796 275.895 131.796 277C131.796 278.105 132.692 279 133.796 279H139.833C140.938 279 141.833 278.105 141.833 277C141.833 275.895 140.938 275 139.833 275H133.796ZM145.87 275C144.766 275 143.87 275.895 143.87 277C143.87 278.105 144.766 279 145.87 279H151.907C153.012 279 153.907 278.105 153.907 277C153.907 275.895 153.012 275 151.907 275H145.87ZM157.944 275C156.84 275 155.944 275.895 155.944 277C155.944 278.105 156.84 279 157.944 279H163.981C165.086 279 165.981 278.105 165.981 277C165.981 275.895 165.086 275 163.981 275H157.944ZM170.018 275C168.914 275 168.018 275.895 168.018 277C168.018 278.105 168.914 279 170.018 279H176.056C177.16 279 178.056 278.105 178.056 277C178.056 275.895 177.16 275 176.056 275H170.018ZM182.093 275C180.988 275 180.093 275.895 180.093 277C180.093 278.105 180.988 279 182.093 279H188.13C189.234 279 190.13 278.105 190.13 277C190.13 275.895 189.234 275 188.13 275H182.093ZM194.167 275C193.062 275 192.167 275.895 192.167 277C192.167 278.105 193.062 279 194.167 279H200.204C201.308 279 202.204 278.105 202.204 277C202.204 275.895 201.308 275 200.204 275H194.167ZM206.241 275C205.136 275 204.241 275.895 204.241 277C204.241 278.105 205.136 279 206.241 279H212.278C213.382 279 214.278 278.105 214.278 277C214.278 275.895 213.382 275 212.278 275H206.241ZM218.315 275C217.21 275 216.315 275.895 216.315 277C216.315 278.105 217.21 279 218.315 279H224.352C225.456 279 226.352 278.105 226.352 277C226.352 275.895 225.456 275 224.352 275H218.315ZM230.389 275C229.284 275 228.389 275.895 228.389 277C228.389 278.105 229.284 279 230.389 279H236.426C237.53 279 238.426 278.105 238.426 277C238.426 275.895 237.53 275 236.426 275H230.389ZM242.463 275C241.358 275 240.463 275.895 240.463 277C240.463 278.105 241.358 279 242.463 279H248.5C249.604 279 250.5 278.105 250.5 277C250.5 275.895 249.604 275 248.5 275H242.463ZM254.537 275C253.432 275 252.537 275.895 252.537 277C252.537 278.105 253.432 279 254.537 279H260.574C261.679 279 262.574 278.105 262.574 277C262.574 275.895 261.679 275 260.574 275H254.537ZM266.611 275C265.506 275 264.611 275.895 264.611 277C264.611 278.105 265.506 279 266.611 279H272.648C273.753 279 274.648 278.105 274.648 277C274.648 275.895 273.753 275 272.648 275H266.611ZM278.685 275C277.581 275 276.685 275.895 276.685 277C276.685 278.105 277.581 279 278.685 279H284.722C285.827 279 286.722 278.105 286.722 277C286.722 275.895 285.827 275 284.722 275H278.685ZM290.759 275C289.655 275 288.759 275.895 288.759 277C288.759 278.105 289.655 279 290.759 279H296.796C297.901 279 298.796 278.105 298.796 277C298.796 275.895 297.901 275 296.796 275H290.759Z" fill="white"/>
</g>
<defs>
<filter id="filter0_d_95_1903" x="0" y="0" width="334" height="384" filterUnits="userSpaceOnUse" color-interpolation-filters="sRGB">
<feFlood flood-opacity="0" result="BackgroundImageFix"/>
<feColorMatrix in="SourceAlpha" type="matrix" values="0 0 0 0 0 0 0 0 0 0 0 0 0 0 0 0 0 0 127 0" result="hardAlpha"/>
<feOffset/>
<feGaussianBlur stdDeviation="2"/>
<feComposite in2="hardAlpha" operator="out"/>
<feColorMatrix type="matrix" values="0 0 0 0 0 0 0 0 0 0 0 0 0 0 0 0 0 0 0.25 0"/>
<feBlend mode="normal" in2="BackgroundImageFix" result="effect1_dropShadow_95_1903"/>
<feBlend mode="normal" in="SourceGraphic" in2="effect1_dropShadow_95_1903" result="shape"/>
</filter>
</defs>
</svg>
