<svg width="32" height="32" viewBox="0 0 32 32" fill="none" xmlns="http://www.w3.org/2000/svg">
    <rect x=".5" y=".5" width="31" height="31" rx="7.5" fill="#fff"/>
    <path d="M6 16c0-.92.895-1.667 2-1.667h16c1.105 0 2 .746 2 1.667 0 .92-.895 1.667-2 1.667H8c-1.105 0-2-.747-2-1.667zM6 9.667C6 8.747 6.895 8 8 8h16c1.105 0 2 .746 2 1.667 0 .92-.895 1.666-2 1.666H8c-1.105 0-2-.746-2-1.666zM6 22.333c0-.92.895-1.666 2-1.666h16c1.105 0 2 .746 2 1.666 0 .92-.895 1.667-2 1.667H8c-1.105 0-2-.746-2-1.667z" fill="#009C7B"/>
    <rect x=".5" y=".5" width="31" height="31" rx="7.5" stroke="#D8D8D8"/>
</svg>
