<svg width="24" height="24" viewBox="0 0 24 24" fill="none" xmlns="http://www.w3.org/2000/svg">
    <g opacity=".3" fill="#1CC500">
        <path d="M1.5 10.125a2.5 2.5 0 0 1 5 0v5a2.5 2.5 0 0 1-5 0v-5z"/>
        <path d="M2.75 17a1.25 1.25 0 1 1 2.5 0v3.75a1.25 1.25 0 1 1-2.5 0V17z"/>
        <path d="M5.25 20.75c.69 0 1.25.56 1.25 1.25H2.75v-1.25h2.5zM6.5 4.5a2.5 2.5 0 1 1-5 0 2.5 2.5 0 0 1 5 0z"/>
    </g>
    <g opacity=".3" fill="#1CC500">
        <path d="M9.5 10.125a2.5 2.5 0 0 1 5 0v5a2.5 2.5 0 0 1-5 0v-5z"/>
        <path d="M10.75 17a1.25 1.25 0 1 1 2.5 0v3.75a1.25 1.25 0 1 1-2.5 0V17z"/>
        <path d="M13.25 20.75c.69 0 1.25.56 1.25 1.25h-3.75v-1.25h2.5zM14.5 4.5a2.5 2.5 0 1 1-5 0 2.5 2.5 0 0 1 5 0z"/>
    </g>
    <path d="M17.5 10.125a2.5 2.5 0 0 1 5 0v5a2.5 2.5 0 0 1-5 0v-5z" fill="#1CC500"/>
    <path d="M18.75 17a1.25 1.25 0 1 1 2.5 0v3.75a1.25 1.25 0 1 1-2.5 0V17z" fill="#1CC500"/>
    <path d="M21.25 20.75c.69 0 1.25.56 1.25 1.25h-3.75v-1.25h2.5zM22.5 4.5a2.5 2.5 0 1 1-5 0 2.5 2.5 0 0 1 5 0z" fill="#1CC500"/>
</svg>
