<svg width="25" height="24" viewBox="0 0 25 24" fill="none" xmlns="http://www.w3.org/2000/svg">
    <path d="M9.5 10a2 2 0 1 0 0-4 2 2 0 0 0 0 4z" stroke="#7D7D7D" stroke-width="1.5" stroke-linecap="round" stroke-linejoin="round"/>
    <path d="M13.5 2h-4c-5 0-7 2-7 7v6c0 5 2 7 7 7h6c5 0 7-2 7-7v-5" stroke="#7D7D7D" stroke-width="1.5" stroke-linecap="round" stroke-linejoin="round"/>
    <path d="M16.25 5h5.5M19 7.75v-5.5" stroke="#7D7D7D" stroke-width="1.5" stroke-linecap="round"/>
    <path d="m3.17 18.95 4.93-3.31c.79-.53 1.93-.47 2.64.14l.33.29c.78.67 2.04.67 2.82 0l4.16-3.57c.78-.67 2.04-.67 2.82 0l1.63 1.4" stroke="#7D7D7D" stroke-width="1.5" stroke-linecap="round" stroke-linejoin="round"/>
</svg>
